<?xml version="1.0" encoding="us-ascii" standalone="no"?><svg xmlns="http://www.w3.org/2000/svg" xmlns:xlink="http://www.w3.org/1999/xlink" contentStyleType="text/css" height="417px" preserveAspectRatio="none" style="width:925px;height:417px;background:#FFFFFF;" version="1.1" viewBox="0 0 925 417" width="925px" zoomAndPan="magnify"><defs/><g><!--cluster ???--><g id="cluster_&#1042;&#1077;&#1073;"><path d="M8.5,6 L39.5,6 A3.75,3.75 0 0 1 42,8.5 L49,28.2969 L408.5,28.2969 A2.5,2.5 0 0 1 411,30.7969 L411,407.5 A2.5,2.5 0 0 1 408.5,410 L8.5,410 A2.5,2.5 0 0 1 6,407.5 L6,8.5 A2.5,2.5 0 0 1 8.5,6 " fill="none" style="stroke:#000000;stroke-width:1.5;"/><line style="stroke:#000000;stroke-width:1.5;" x1="6" x2="49" y1="28.2969" y2="28.2969"/><text fill="#000000" font-family="sans-serif" font-size="14" font-weight="bold" lengthAdjust="spacing" textLength="30" x="10" y="20.9951">&#1042;&#1077;&#1073;</text></g><!--cluster ????????--><g id="cluster_&#1040;&#1083;&#1075;&#1086;&#1088;&#1080;&#1090;&#1084;"><path d="M437.5,307 L515.5,307 A3.75,3.75 0 0 1 518,309.5 L525,329.2969 L915.5,329.2969 A2.5,2.5 0 0 1 918,331.7969 L918,401.5 A2.5,2.5 0 0 1 915.5,404 L437.5,404 A2.5,2.5 0 0 1 435,401.5 L435,309.5 A2.5,2.5 0 0 1 437.5,307 " fill="none" style="stroke:#000000;stroke-width:1.5;"/><line style="stroke:#000000;stroke-width:1.5;" x1="435" x2="525" y1="329.2969" y2="329.2969"/><text fill="#000000" font-family="sans-serif" font-size="14" font-weight="bold" lengthAdjust="spacing" textLength="77" x="439" y="321.9951">&#1040;&#1083;&#1075;&#1086;&#1088;&#1080;&#1090;&#1084;</text></g><!--cluster ??--><g id="cluster_&#1041;&#1044;"><path d="M435,156 C435,146 554,146 554,146 C554,146 673,146 673,156 L673,248 C673,258 554,258 554,258 C554,258 435,258 435,248 L435,156 " fill="none" style="stroke:#181818;stroke-width:1.0;"/><path d="M435,156 C435,166 554,166 554,166 C554,166 673,166 673,156 " fill="none" style="stroke:#181818;stroke-width:1.0;"/><text fill="#000000" font-family="sans-serif" font-size="14" font-weight="bold" lengthAdjust="spacing" textLength="23" x="542.5" y="180.9951">&#1041;&#1044;</text></g><!--entity ??????--><g id="elem_&#1050;&#1083;&#1080;&#1077;&#1085;&#1090;"><rect fill="#F1F1F1" height="46.2969" rx="2.5" ry="2.5" style="stroke:#181818;stroke-width:0.5;" width="95" x="117.5" y="196"/><rect fill="#F1F1F1" height="10" style="stroke:#181818;stroke-width:0.5;" width="15" x="192.5" y="201"/><rect fill="#F1F1F1" height="2" style="stroke:#181818;stroke-width:0.5;" width="4" x="190.5" y="203"/><rect fill="#F1F1F1" height="2" style="stroke:#181818;stroke-width:0.5;" width="4" x="190.5" y="207"/><text fill="#000000" font-family="sans-serif" font-size="14" lengthAdjust="spacing" textLength="55" x="132.5" y="228.9951">&#1050;&#1083;&#1080;&#1077;&#1085;&#1090;</text></g><!--entity API--><g id="elem_API"><ellipse cx="257" cy="219" fill="#F1F1F1" rx="8" ry="8" style="stroke:#181818;stroke-width:0.5;"/><text fill="#000000" font-family="sans-serif" font-size="14" lengthAdjust="spacing" textLength="21" x="246.5" y="248.9951">API</text></g><!--entity ??????--><g id="elem_&#1057;&#1077;&#1088;&#1074;&#1077;&#1088;"><rect fill="#F1F1F1" height="46.2969" rx="2.5" ry="2.5" style="stroke:#181818;stroke-width:0.5;" width="94" x="301" y="196"/><rect fill="#F1F1F1" height="10" style="stroke:#181818;stroke-width:0.5;" width="15" x="375" y="201"/><rect fill="#F1F1F1" height="2" style="stroke:#181818;stroke-width:0.5;" width="4" x="373" y="203"/><rect fill="#F1F1F1" height="2" style="stroke:#181818;stroke-width:0.5;" width="4" x="373" y="207"/><text fill="#000000" font-family="sans-serif" font-size="14" lengthAdjust="spacing" textLength="54" x="316" y="228.9951">&#1057;&#1077;&#1088;&#1074;&#1077;&#1088;</text></g><!--entity ??????? ????--><g id="elem_&#1059;&#1095;&#1077;&#1073;&#1085;&#1099;&#1081; &#1087;&#1083;&#1072;&#1085;"><ellipse cx="165" cy="70" fill="#F1F1F1" rx="8" ry="8" style="stroke:#181818;stroke-width:0.5;"/><text fill="#000000" font-family="sans-serif" font-size="14" lengthAdjust="spacing" textLength="102" x="114" y="99.9951">&#1059;&#1095;&#1077;&#1073;&#1085;&#1099;&#1081; &#1087;&#1083;&#1072;&#1085;</text></g><!--entity ??????????--><g id="elem_&#1056;&#1072;&#1089;&#1087;&#1080;&#1089;&#1072;&#1085;&#1080;&#1077;"><ellipse cx="165" cy="365" fill="#F1F1F1" rx="8" ry="8" style="stroke:#181818;stroke-width:0.5;"/><text fill="#000000" font-family="sans-serif" font-size="14" lengthAdjust="spacing" textLength="86" x="122" y="394.9951">&#1056;&#1072;&#1089;&#1087;&#1080;&#1089;&#1072;&#1085;&#1080;&#1077;</text></g><g id="elem_GMN14"><path d="M22,206.5 L22,231.6328 A0,0 0 0 0 22,231.6328 L82,231.6328 A0,0 0 0 0 82,231.6328 L82,224.5 L117.35,219 L82,216.5 L82,216.5 L72,206.5 L22,206.5 A0,0 0 0 0 22,206.5 " fill="#FEFFDD" style="stroke:#181818;stroke-width:0.5;"/><path d="M72,206.5 L72,216.5 L82,216.5 L72,206.5 " fill="#FEFFDD" style="stroke:#181818;stroke-width:0.5;"/><text fill="#000000" font-family="sans-serif" font-size="13" lengthAdjust="spacing" textLength="39" x="28" y="223.5669">Vue.js</text></g><g id="elem_GMN17"><path d="M302,57.5 L302,82.6328 A0,0 0 0 0 302,82.6328 L344,82.6328 L348,195.98 L352,82.6328 L394,82.6328 A0,0 0 0 0 394,82.6328 L394,67.5 L384,57.5 L302,57.5 A0,0 0 0 0 302,57.5 " fill="#FEFFDD" style="stroke:#181818;stroke-width:0.5;"/><path d="M384,57.5 L384,67.5 L394,67.5 L384,57.5 " fill="#FEFFDD" style="stroke:#181818;stroke-width:0.5;"/><text fill="#000000" font-family="sans-serif" font-size="13" lengthAdjust="spacing" textLength="71" x="308" y="74.5669">SpringBoot</text></g><!--entity ??????--><g id="elem_&#1055;&#1072;&#1088;&#1089;&#1077;&#1088;"><rect fill="#F1F1F1" height="46.2969" rx="2.5" ry="2.5" style="stroke:#181818;stroke-width:0.5;" width="93" x="450.5" y="342"/><rect fill="#F1F1F1" height="10" style="stroke:#181818;stroke-width:0.5;" width="15" x="523.5" y="347"/><rect fill="#F1F1F1" height="2" style="stroke:#181818;stroke-width:0.5;" width="4" x="521.5" y="349"/><rect fill="#F1F1F1" height="2" style="stroke:#181818;stroke-width:0.5;" width="4" x="521.5" y="353"/><text fill="#000000" font-family="sans-serif" font-size="14" lengthAdjust="spacing" textLength="53" x="465.5" y="374.9951">&#1055;&#1072;&#1088;&#1089;&#1077;&#1088;</text></g><!--entity ???????????? ????????--><g id="elem_&#1043;&#1077;&#1085;&#1077;&#1090;&#1080;&#1095;&#1077;&#1089;&#1082;&#1080;&#1081; &#1072;&#1083;&#1075;&#1086;&#1088;&#1080;&#1090;&#1084;"><rect fill="#F1F1F1" height="46.2969" rx="2.5" ry="2.5" style="stroke:#181818;stroke-width:0.5;" width="218" x="579" y="342"/><rect fill="#F1F1F1" height="10" style="stroke:#181818;stroke-width:0.5;" width="15" x="777" y="347"/><rect fill="#F1F1F1" height="2" style="stroke:#181818;stroke-width:0.5;" width="4" x="775" y="349"/><rect fill="#F1F1F1" height="2" style="stroke:#181818;stroke-width:0.5;" width="4" x="775" y="353"/><text fill="#000000" font-family="sans-serif" font-size="14" lengthAdjust="spacing" textLength="178" x="594" y="374.9951">&#1043;&#1077;&#1085;&#1077;&#1090;&#1080;&#1095;&#1077;&#1089;&#1082;&#1080;&#1081; &#1072;&#1083;&#1075;&#1086;&#1088;&#1080;&#1090;&#1084;</text></g><g id="elem_GMN24"><path d="M832,352.5 L832,361 L797.08,365 L832,369 L832,377.6328 A0,0 0 0 0 832,377.6328 L902,377.6328 A0,0 0 0 0 902,377.6328 L902,362.5 L892,352.5 L832,352.5 A0,0 0 0 0 832,352.5 " fill="#FEFFDD" style="stroke:#181818;stroke-width:0.5;"/><path d="M892,352.5 L892,362.5 L902,362.5 L892,352.5 " fill="#FEFFDD" style="stroke:#181818;stroke-width:0.5;"/><text fill="#000000" font-family="sans-serif" font-size="13" lengthAdjust="spacing" textLength="49" x="838" y="369.5669">Jenetics</text></g><!--entity In-memory H2 Database--><g id="elem_In-memory H2 Database"><rect fill="#F1F1F1" height="46.2969" rx="2.5" ry="2.5" style="stroke:#181818;stroke-width:0.5;" width="206" x="451" y="196"/><rect fill="#F1F1F1" height="10" style="stroke:#181818;stroke-width:0.5;" width="15" x="637" y="201"/><rect fill="#F1F1F1" height="2" style="stroke:#181818;stroke-width:0.5;" width="4" x="635" y="203"/><rect fill="#F1F1F1" height="2" style="stroke:#181818;stroke-width:0.5;" width="4" x="635" y="207"/><text fill="#000000" font-family="sans-serif" font-size="14" lengthAdjust="spacing" textLength="166" x="466" y="228.9951">In-memory H2 Database</text></g><!--link ?????? to API--><g id="link_&#1050;&#1083;&#1080;&#1077;&#1085;&#1090;_API"><path d="M212.8,219 C224.42,219 236.05,219 247.68,219 " fill="none" id="&#1050;&#1083;&#1080;&#1077;&#1085;&#1090;-API" style="stroke:#181818;stroke-width:1.0;"/></g><!--link API to ??????--><g id="link_API_&#1057;&#1077;&#1088;&#1074;&#1077;&#1088;"><path d="M266.24,219 C277.74,219 289.24,219 300.73,219 " fill="none" id="API-&#1057;&#1077;&#1088;&#1074;&#1077;&#1088;" style="stroke:#181818;stroke-width:1.0;"/></g><!--link ??????? ???? to ??????--><g id="link_&#1059;&#1095;&#1077;&#1073;&#1085;&#1099;&#1081; &#1087;&#1083;&#1072;&#1085;_&#1050;&#1083;&#1080;&#1077;&#1085;&#1090;"><path d="M165,79.32 C165,100.37 165,156.43 165,190.48 " fill="none" id="&#1059;&#1095;&#1077;&#1073;&#1085;&#1099;&#1081; &#1087;&#1083;&#1072;&#1085;-to-&#1050;&#1083;&#1080;&#1077;&#1085;&#1090;" style="stroke:#181818;stroke-width:1.0;"/><polygon fill="#181818" points="165,195.75,169,186.75,165,190.75,161,186.75,165,195.75" style="stroke:#181818;stroke-width:1.0;"/></g><!--link ?????? to ??????????--><g id="link_&#1050;&#1083;&#1080;&#1077;&#1085;&#1090;_&#1056;&#1072;&#1089;&#1087;&#1080;&#1089;&#1072;&#1085;&#1080;&#1077;"><path d="M165,242.18 C165,272.55 165,326.1 165,350.82 " fill="none" id="&#1050;&#1083;&#1080;&#1077;&#1085;&#1090;-to-&#1056;&#1072;&#1089;&#1087;&#1080;&#1089;&#1072;&#1085;&#1080;&#1077;" style="stroke:#181818;stroke-width:1.0;"/><polygon fill="#181818" points="165,355.91,169,346.91,165,350.91,161,346.91,165,355.91" style="stroke:#181818;stroke-width:1.0;"/></g><!--link ?????? to ???????????? ????????--><g id="link_&#1055;&#1072;&#1088;&#1089;&#1077;&#1088;_&#1043;&#1077;&#1085;&#1077;&#1090;&#1080;&#1095;&#1077;&#1089;&#1082;&#1080;&#1081; &#1072;&#1083;&#1075;&#1086;&#1088;&#1080;&#1090;&#1084;"><path d="M548.86,365 C557.15,365 565.43,365 573.72,365 " fill="none" id="&#1055;&#1072;&#1088;&#1089;&#1077;&#1088;-&#1043;&#1077;&#1085;&#1077;&#1090;&#1080;&#1095;&#1077;&#1089;&#1082;&#1080;&#1081; &#1072;&#1083;&#1075;&#1086;&#1088;&#1080;&#1090;&#1084;" style="stroke:#181818;stroke-width:1.0;"/><polygon fill="#181818" points="543.63,365,552.63,369,548.63,365,552.63,361,543.63,365" style="stroke:#181818;stroke-width:1.0;"/><polygon fill="#181818" points="578.88,365,569.88,361,573.88,365,569.88,369,578.88,365" style="stroke:#181818;stroke-width:1.0;"/></g><!--link ?????? to In-memory H2 Database--><g id="link_&#1057;&#1077;&#1088;&#1074;&#1077;&#1088;_In-memory H2 Database"><path d="M395.07,231.16 C413.7,234.55 432.32,236.25 450.95,236.25 " fill="none" id="&#1057;&#1077;&#1088;&#1074;&#1077;&#1088;-In-memory H2 Database" style="stroke:#181818;stroke-width:1.0;"/></g><!--link ?????? to ??????--><g id="link_&#1055;&#1072;&#1088;&#1089;&#1077;&#1088;_&#1057;&#1077;&#1088;&#1074;&#1077;&#1088;"><path d="M473.77,341.55 C445.73,314.45 398.87,269.17 370.95,242.18 " fill="none" id="&#1055;&#1072;&#1088;&#1089;&#1077;&#1088;-&#1057;&#1077;&#1088;&#1074;&#1077;&#1088;" style="stroke:#181818;stroke-width:1.0;"/></g><!--link ?????? to ???????????? ????????--><g id="link_&#1057;&#1077;&#1088;&#1074;&#1077;&#1088;_&#1043;&#1077;&#1085;&#1077;&#1090;&#1080;&#1095;&#1077;&#1089;&#1082;&#1080;&#1081; &#1072;&#1083;&#1075;&#1086;&#1088;&#1080;&#1090;&#1084;"><path d="M385.22,242.1 C400.31,250.41 418.12,259.43 435,266 C488.94,287 506.92,278.36 561,299 C590.19,310.14 621.45,326.09 645.65,339.39 " fill="none" id="&#1057;&#1077;&#1088;&#1074;&#1077;&#1088;-to-&#1043;&#1077;&#1085;&#1077;&#1090;&#1080;&#1095;&#1077;&#1089;&#1082;&#1080;&#1081; &#1072;&#1083;&#1075;&#1086;&#1088;&#1080;&#1090;&#1084;" style="stroke:#181818;stroke-width:1.0;stroke-dasharray:7.0,7.0;"/><polygon fill="#181818" points="650.09,341.85,644.1455,333.9974,645.7132,339.4327,640.2779,341.0004,650.09,341.85" style="stroke:#181818;stroke-width:1.0;"/><text fill="#000000" font-family="sans-serif" font-size="13" lengthAdjust="spacing" textLength="107" x="535" y="287.0669">&#1048;&#1085;&#1080;&#1094;&#1080;&#1072;&#1083;&#1080;&#1079;&#1072;&#1094;&#1080;&#1103;</text></g><!--SRC=[bP7DIiDG48NtUOgX-tJXifI2uiAw4WGt9OlOtiQepGr9YeW8DGjTkF1t8MvKV86e5EDFzHNclf7d9gqreO9cSI4ptyoSC-FRxItR4SJdFEG7sZC8Nukl-OrJH4OgjiWCN6SZCcb-fJbEt_5G3VXHlqXlYsuXMoYkcttVf0hVgoCz0S5ZVY7-19Fmg39pNaVkU6O3HRUSg0EmALxG6iahF1a9qdD9TalbDLhhY-fcEEKYwUVOJzarMlK3rtCMf8oCVSFm9uiuHQyd_W2OgfZVlrTo0oq3wCWyro6lnHTw908nKBX3yXKou2ufzh2cMh9Lvch-N5sZPU69o6s7McZ7ZknrEuJICxwSg6jwPa_qPB1BItEqE2OiZPUFzIix-wf5tsMeMctypmXVwIkgG-IJx6RFw8u_TM9y0G00]--></g></svg>